<svg enable-background="new 0 0 841.9 595.3" viewBox="0 0 841.9 595.3" xmlns="http://www.w3.org/2000/svg"><g fill="#838e98"><path d="m190.4 346.6.3 2.4.4-2.5 3-9.8h.8l3 9.8.4 2.4.4-2.5 2.5-9.8h1.7l-4.1 14.9h-1l-3-9.8-.4-2.2h-.1l-.4 2.2-3 9.8h-1l-4.2-14.9h1.8z"/><path d="m209.4 337.8c0-.3.1-.6.3-.8s.5-.3.8-.3.6.1.9.3c.2.2.4.5.4.8s-.1.6-.4.8c-.2.2-.5.3-.9.3s-.6-.1-.8-.3-.3-.5-.3-.8zm.3 3.2h1.7v10.5h-1.7z"/><path d="m224.1 342.6c-.4-.1-.8-.2-1.2-.2-.6 0-1.1.2-1.4.5-.4.3-.6.7-.7 1.3v7.3h-1.7v-10.5h1.2l.3 1.3h.1c.3-.5.6-.8 1-1.1s.8-.4 1.4-.4c.4 0 .9.1 1.4.2z"/><path d="m249.2 347.8v1.9c0 .6.1 1.2.2 1.7h-1.1l-.4-1.5h-.1c-.3.5-.7.9-1.2 1.2s-1.2.5-1.9.5c-1.4 0-2.4-.4-3.1-1.3s-1-2.3-1-4.1.4-3.2 1.3-4.1c.8-.9 2-1.4 3.5-1.4.5 0 .9 0 1.2.1s.6.1 1 .3v-4.4h1.7v11.1zm-4.3 2.4c.7 0 1.3-.2 1.7-.6s.7-.9.9-1.7v-5.2c-.3-.2-.5-.3-.9-.4-.3-.1-.7-.1-1.3-.1-1 0-1.7.3-2.3 1-.5.6-.8 1.7-.8 3.1 0 .6 0 1.1.1 1.6s.2.9.5 1.3c.2.3.5.6.8.8.4.1.8.2 1.3.2z"/><path d="m256.6 337.8c0-.3.1-.6.3-.8s.5-.3.8-.3.6.1.9.3c.2.2.4.5.4.8s-.1.6-.4.8c-.2.2-.5.3-.9.3s-.6-.1-.8-.3-.3-.5-.3-.8zm.3 3.2h1.7v10.5h-1.7z"/><path d="m274.5 351.9c0 1.4-.4 2.4-1.1 3s-1.8 1-3.2 1c-.8 0-1.5-.1-2-.2s-.9-.2-1.3-.4l.4-1.4c.3.1.7.2 1.1.4.4.1.9.2 1.5.2s1.1-.1 1.4-.2c.4-.1.7-.3.9-.5s.4-.6.5-.9.1-.8.1-1.4v-1h-.1c-.3.4-.6.7-1.1.9-.4.2-1 .3-1.7.3-1.4 0-2.5-.4-3.1-1.3s-1-2.3-1-4.1.4-3.2 1.3-4.1 2.1-1.4 3.8-1.4c.8 0 1.5.1 2 .2.6.1 1.1.3 1.5.4v10.5zm-4.2-1.7c.7 0 1.3-.2 1.7-.5.4-.4.7-.9.9-1.7v-5.4c-.6-.3-1.3-.4-2.1-.4-1 0-1.7.3-2.2 1-.5.6-.8 1.7-.8 3 0 .6 0 1.1.1 1.6s.3.9.5 1.3c.2.3.5.6.8.8.2.2.6.3 1.1.3z"/><path d="m281.9 337.8c0-.3.1-.6.3-.8s.5-.3.8-.3.6.1.9.3c.2.2.4.5.4.8s-.1.6-.4.8c-.2.2-.5.3-.9.3s-.6-.1-.8-.3-.3-.5-.3-.8zm.3 3.2h1.7v10.5h-1.7z"/><path d="m290.5 341h1.6v-2.1l1.7-.5v2.6h2.9v1.5h-2.9v5.8c0 .7.1 1.2.3 1.5s.5.5.9.5.7 0 .9-.1c.3-.1.5-.2.8-.3l.4 1.3c-.4.2-.8.3-1.2.4s-.9.2-1.4.2c-.9 0-1.5-.2-1.8-.7-.4-.5-.5-1.3-.5-2.4v-6.1h-1.6v-1.6z"/><path d="m303.7 341.7c.5-.3 1.2-.6 1.9-.7.7-.2 1.4-.2 2.2-.2.7 0 1.3.1 1.8.3s.8.5 1 .8.4.7.5 1c.1.4.1.8.1 1.1 0 .8 0 1.7-.1 2.5 0 .8-.1 1.6-.1 2.3 0 .5 0 1 .1 1.5s.1.9.2 1.3h-1.3l-.4-1.5h-.1c-.1.2-.3.4-.5.6s-.4.4-.7.5-.6.3-.9.4c-.4.1-.7.1-1.2.1-.4 0-.9-.1-1.2-.2-.4-.1-.7-.3-1-.6s-.5-.6-.7-.9c-.2-.4-.2-.8-.2-1.2 0-.6.1-1.1.4-1.5s.6-.7 1.1-1c.5-.2 1-.4 1.6-.5s1.3-.2 2.1-.2h.6s.4 0 .6 0c0-.4.1-.8.1-1.1 0-.8-.2-1.3-.5-1.6s-.9-.5-1.7-.5c-.2 0-.5 0-.8.1s-.6.1-.8.2c-.3.1-.6.1-.8.2-.3.1-.5.2-.7.3zm3 8.5c.4 0 .7-.1 1-.2s.6-.2.8-.4.4-.3.6-.5c.1-.2.3-.4.3-.6v-1.7c-.2 0-.4 0-.6 0s-.4 0-.6 0c-.4 0-.9 0-1.3.1-.4 0-.8.1-1.1.3s-.6.3-.8.5-.3.5-.3.9c0 .5.2.9.5 1.2.5.2.9.4 1.5.4z"/><path d="m320.3 348.9c0 .5.1.8.3 1s.4.3.7.3h.6s.4-.1.7-.2l.2 1.3c-.2.1-.5.2-.9.3s-.7.1-1 .1c-.6 0-1.1-.2-1.6-.5-.4-.4-.6-1-.6-1.8v-12.6h1.7v12.1z"/><path d="m329.1 337.8c0-.3.1-.6.3-.8s.5-.3.8-.3.6.1.9.3c.2.2.4.5.4.8s-.1.6-.4.8c-.2.2-.5.3-.9.3s-.6-.1-.8-.3-.3-.5-.3-.8zm.3 3.2h1.7v10.5h-1.7z"/><path d="m343.5 348.6c0-.4-.1-.7-.4-1s-.6-.4-.9-.6-.8-.3-1.2-.5c-.4-.1-.8-.3-1.2-.6-.4-.2-.7-.5-.9-.9-.3-.4-.4-.9-.4-1.5 0-1 .3-1.7.9-2.2s1.4-.7 2.4-.7c.8 0 1.4.1 1.9.2s1 .3 1.3.5l-.4 1.4c-.3-.2-.7-.3-1.2-.4s-.9-.2-1.5-.2-1.1.1-1.4.3-.4.6-.4 1.1c0 .4.1.6.4.9s.6.4.9.5c.4.2.8.3 1.2.5s.8.4 1.2.6c.4.3.7.6.9 1s.4.9.4 1.5c0 .4-.1.9-.2 1.3s-.4.7-.7 1-.7.5-1.1.7c-.5.2-1 .2-1.6.2-.8 0-1.5-.1-2-.2-.6-.2-1-.3-1.4-.5l.5-1.4c.3.2.7.4 1.3.5.5.2 1 .2 1.6.2s1.1-.1 1.5-.4c.3-.3.5-.7.5-1.3z"/><path d="m351.8 337.8c0-.3.1-.6.3-.8s.5-.3.8-.3.6.1.9.3c.2.2.4.5.4.8s-.1.6-.4.8c-.2.2-.5.3-.9.3s-.6-.1-.8-.3-.3-.5-.3-.8zm.3 3.2h1.7v10.5h-1.7z"/><path d="m369.3 350.6c-.4.3-.9.6-1.6.8s-1.3.3-2 .3c-.8 0-1.5-.1-2.1-.4s-1.1-.6-1.4-1.1c-.4-.5-.7-1.1-.8-1.7-.2-.7-.3-1.4-.3-2.3 0-1.8.4-3.2 1.2-4.1s1.9-1.4 3.4-1.4c.5 0 1 .1 1.4.2.5.1.9.3 1.3.6s.7.7.9 1.3c.2.5.4 1.2.4 2.1 0 .5 0 1-.1 1.5h-6.7c0 .6.1 1.2.2 1.6.1.5.3.9.6 1.2s.6.6 1 .8.9.3 1.6.3c.5 0 1-.1 1.4-.3.5-.2.8-.4 1.1-.6zm-3.6-8.4c-.8 0-1.5.2-2 .7-.5.4-.8 1.2-.9 2.2h5.2c0-1.1-.2-1.8-.6-2.2-.4-.5-1-.7-1.7-.7z"/><path d="m381.6 342.6c-.4-.1-.8-.2-1.2-.2-.6 0-1.1.2-1.4.5-.4.3-.6.7-.7 1.3v7.3h-1.7v-10.5h1.2l.3 1.3h.1c.3-.5.6-.8 1-1.1s.8-.4 1.4-.4c.4 0 .9.1 1.4.2z"/><path d="m395.9 350.6c-.4.3-.9.6-1.6.8s-1.3.3-2 .3c-.8 0-1.5-.1-2.1-.4s-1.1-.6-1.4-1.1c-.4-.5-.7-1.1-.8-1.7-.2-.7-.3-1.4-.3-2.3 0-1.8.4-3.2 1.2-4.1s1.9-1.4 3.4-1.4c.5 0 1 .1 1.4.2.5.1.9.3 1.3.6s.7.7.9 1.3c.2.5.4 1.2.4 2.1 0 .5 0 1-.1 1.5h-6.7c0 .6.1 1.2.2 1.6.1.5.3.9.6 1.2s.6.6 1 .8.9.3 1.6.3c.5 0 1-.1 1.4-.3.5-.2.8-.4 1.1-.6zm-3.6-8.4c-.8 0-1.5.2-2 .7-.5.4-.8 1.2-.9 2.2h5.2c0-1.1-.2-1.8-.6-2.2-.4-.5-1-.7-1.7-.7z"/><path d="m410 351.5v-6c0-1.1-.2-1.9-.5-2.5s-.9-.8-1.7-.8c-.7 0-1.4.2-1.8.6-.5.4-.8.9-1 1.5v7.2h-1.7v-10.5h1.2l.3 1.3h.1c.3-.4.8-.8 1.4-1.1s1.2-.4 2-.4c.6 0 1.1.1 1.5.2s.8.4 1.1.7.5.8.7 1.4c.1.6.2 1.3.2 2.2v6.3h-1.8z"/><path d="m430.1 336.8h1.7v14.7h-1.7z"/><path d="m446.6 351.5v-6c0-.5 0-1-.1-1.4s-.2-.8-.3-1c-.2-.3-.4-.5-.7-.6s-.7-.2-1.1-.2c-.7 0-1.3.2-1.8.6s-.9 1-1 1.6v7h-1.7v-14.7h1.7v5.4h.1c.4-.4.8-.8 1.3-1 .5-.3 1.1-.4 1.9-.4.6 0 1.1.1 1.5.2s.8.4 1.1.7.5.8.6 1.4.2 1.3.2 2.2v6.3h-1.7z"/><path d="m460.7 342.6c-.4-.1-.8-.2-1.2-.2-.6 0-1.1.2-1.4.5-.4.3-.6.7-.7 1.3v7.3h-1.7v-10.5h1.2l.3 1.3h.1c.3-.5.6-.8 1-1.1s.8-.4 1.4-.4c.4 0 .9.1 1.4.2z"/><path d="m475 350.6c-.4.3-.9.6-1.6.8-.6.2-1.3.3-2 .3-.8 0-1.5-.1-2.1-.4s-1.1-.6-1.4-1.1c-.4-.5-.7-1.1-.8-1.7-.2-.7-.3-1.4-.3-2.3 0-1.8.4-3.2 1.2-4.1s1.9-1.4 3.4-1.4c.5 0 1 .1 1.4.2.5.1.9.3 1.3.6s.7.7.9 1.3c.2.5.4 1.2.4 2.1 0 .5 0 1-.1 1.5h-6.7c0 .6.1 1.2.2 1.6.1.5.3.9.6 1.2s.6.6 1 .8.9.3 1.6.3c.5 0 1-.1 1.4-.3.5-.2.8-.4 1.1-.6zm-3.7-8.4c-.8 0-1.5.2-2 .7-.5.4-.8 1.2-.9 2.2h5.2c0-1.1-.2-1.8-.6-2.2-.3-.5-.9-.7-1.7-.7z"/><path d="m496.7 346.9.5 2.2.5-2.3 3.5-10.1h1.7l-5.6 14.9h-.8l-5.7-14.9h1.9z"/><path d="m516.1 350.6c-.4.3-.9.6-1.6.8s-1.3.3-2 .3c-.8 0-1.5-.1-2.1-.4s-1.1-.6-1.4-1.1c-.4-.5-.7-1.1-.8-1.7-.2-.7-.3-1.4-.3-2.3 0-1.8.4-3.2 1.2-4.1s1.9-1.4 3.4-1.4c.5 0 1 .1 1.4.2.5.1.9.3 1.3.6s.7.7.9 1.3c.2.5.4 1.2.4 2.1 0 .5 0 1-.1 1.5h-6.7c0 .6.1 1.2.2 1.6.1.5.3.9.6 1.2s.6.6 1 .8.9.3 1.6.3c.5 0 1-.1 1.4-.3.5-.2.8-.4 1.1-.6zm-3.7-8.4c-.8 0-1.5.2-2 .7s-.8 1.2-.9 2.2h5.2c0-1.1-.2-1.8-.6-2.2-.3-.5-.9-.7-1.7-.7z"/><path d="m528.4 342.6c-.4-.1-.8-.2-1.2-.2-.6 0-1.1.2-1.4.5-.4.3-.6.7-.7 1.3v7.3h-1.7v-10.5h1.2l.3 1.3h.1c.3-.5.6-.8 1-1.1s.8-.4 1.4-.4c.4 0 .9.1 1.4.2z"/><path d="m542.8 341 2.4 6.1.5 2 .4-2.1 1.9-6.1h1.6l-3.5 10.7h-.8l-2.8-6.9-.4-1.7h-.1l-.4 1.7-2.6 6.9h-.8l-3.7-10.7h1.8l2.1 6.1.4 2 .5-2.1 2.2-6.1h1.3z"/><path d="m555.9 341.7c.5-.3 1.2-.6 1.9-.7.7-.2 1.4-.2 2.2-.2.7 0 1.3.1 1.8.3.4.2.8.5 1 .8s.4.7.5 1 .1.8.1 1.1c0 .8 0 1.7-.1 2.5 0 .8-.1 1.6-.1 2.3 0 .5 0 1 .1 1.5s.1.9.2 1.3h-1.2l-.4-1.5h-.1c-.1.2-.3.4-.5.6s-.4.4-.7.5-.6.3-.9.4c-.4.1-.7.1-1.2.1s-.9-.1-1.2-.2c-.4-.1-.7-.3-1-.6s-.5-.6-.7-.9c-.2-.4-.2-.8-.2-1.2 0-.6.1-1.1.4-1.5s.6-.7 1.1-1c.5-.2 1-.4 1.6-.5s1.3-.2 2.1-.2h.6.6c0-.4.1-.8.1-1.1 0-.8-.2-1.3-.5-1.6s-.9-.5-1.7-.5c-.2 0-.5 0-.8.1-.3 0-.6.1-.8.2-.3.1-.6.1-.8.2s-.5.2-.7.3zm3 8.5c.4 0 .7-.1 1.1-.2.3-.1.6-.2.8-.4s.4-.3.6-.5c.1-.2.3-.4.3-.6v-1.7c-.2 0-.4 0-.6 0s-.4 0-.6 0c-.4 0-.9 0-1.3.1-.4 0-.8.1-1.1.3-.3.1-.6.3-.8.5s-.3.5-.3.9c0 .5.2.9.5 1.2.4.2.8.4 1.4.4z"/><path d="m572.5 348.9c0 .5.1.8.3 1s.4.3.7.3h.6s.4-.1.7-.2l.2 1.3c-.2.1-.5.2-.9.3s-.7.1-1 .1c-.6 0-1.1-.2-1.6-.5-.4-.4-.6-1-.6-1.8v-12.6h1.7v12.1z"/><path d="m579.8 341h1.6v-2.1l1.7-.5v2.6h2.9v1.5h-2.9v5.8c0 .7.1 1.2.3 1.5s.5.5.9.5.7 0 .9-.1c.3-.1.5-.2.8-.3l.4 1.3c-.4.2-.8.3-1.2.4s-.9.2-1.4.2c-.9 0-1.5-.2-1.8-.7s-.5-1.3-.5-2.4v-6.1h-1.6v-1.6z"/><path d="m594.3 341v6c0 .5 0 1 .1 1.4s.2.8.3 1c.2.3.4.5.6.6s.6.2 1 .2.7-.1 1-.2.6-.3.8-.5.4-.5.6-.7c.2-.3.3-.6.4-.9v-7h1.7v7.5c0 .5 0 1 .1 1.6 0 .5.1 1 .2 1.4h-1.2l-.4-1.7h-.1c-.3.5-.8 1-1.3 1.4s-1.2.5-2.1.5c-.6 0-1.1-.1-1.5-.2s-.8-.4-1.1-.7-.5-.8-.7-1.4c-.1-.6-.2-1.3-.2-2.2v-6.1z"/><path d="m615.2 351.5v-6c0-1.1-.2-1.9-.5-2.5s-.9-.8-1.7-.8c-.7 0-1.4.2-1.8.6-.5.4-.8.9-1 1.5v7.2h-1.7v-10.5h1.2l.3 1.3h.1c.3-.4.8-.8 1.4-1.1s1.2-.4 2-.4c.6 0 1.1.1 1.5.2s.8.4 1.1.7.5.8.7 1.4c.1.6.2 1.3.2 2.2v6.3h-1.8z"/><path d="m632.5 351.9c0 1.4-.4 2.4-1.1 3s-1.8 1-3.2 1c-.8 0-1.5-.1-2-.2s-.9-.2-1.3-.4l.4-1.4c.3.1.7.2 1.1.4.4.1.9.2 1.5.2s1.1-.1 1.4-.2c.4-.1.7-.3.9-.5s.4-.6.5-.9.1-.8.1-1.4v-1h-.1c-.3.4-.6.7-1.1.9s-1 .3-1.7.3c-1.4 0-2.5-.4-3.1-1.3s-1-2.3-1-4.1.4-3.2 1.3-4.1 2.1-1.4 3.8-1.4c.8 0 1.5.1 2 .2.6.1 1.1.3 1.5.4v10.5zm-4.3-1.7c.7 0 1.3-.2 1.7-.5.4-.4.7-.9.9-1.7v-5.4c-.6-.3-1.3-.4-2.1-.4-1 0-1.7.3-2.2 1s-.8 1.7-.8 3c0 .6 0 1.1.1 1.6s.3.9.5 1.3c.2.3.5.6.8.8.2.2.7.3 1.1.3z"/><path d="m303.1 257.4h14.5c16.3 0 18.3 2.4 18.3 18.6v14.4c0 6.9-4.7 11.6-11.5 11.6h-17.4c-10.7 0-15.3-4.6-15.3-11.6v-51.6h11.4zm21.3 11.5h-21.3v21.4h21.3z"/><path d="m197.4 320.6h-11.4v-63.2h32.7c11.8 0 11.6 9.7 11.6 18.6 0 4.8-.1 9.6-.1 14.4 0 6.9-4.6 11.5-11.5 11.6h-21.3zm21.2-51.7h-21.3v21.4h21.3z"/><path d="m250.3 290.3h21.3v-32.9h11.5v44.5h-32.8c-11.4 0-11.4-11.6-11.4-22.3 0-7.3 0-14.8 0-22.2h11.4z"/><path d="m356 301.8h-11.4v-63.2h11.4z"/><path d="m364.7 238.7h11.4v11.3h-11.4z"/><path d="m364.7 257.4h11.4v44.4h-11.4z"/><path d="m396.3 301.8c-12.4 0-11.5-9.7-11.5-18.6v-14.3c0-6.9 4.6-11.6 11.5-11.6h32.8v11.5h-32.8v21.4h32.8v11.5h-32.8z"/></g><path d="m440.6 238.7h192.5v81.9h-192.5z" fill="#034573"/><path d="m463.6 321.5h-11.4v-64.1h32.7c11.8 0 11.6 9.7 11.6 18.6v14.4c0 6.9-4.7 11.5-11.6 11.5h-21.3zm21.3-52.6h-21.3v21.5h21.3z" fill="#fff"/><path d="m516.5 301.8h-11.4v-63.1h11.4z" fill="#fff"/><path d="m536.3 274.2h21.3v-6.3h-28.7v-10.5h28.7c13.3 0 11.6 12.9 11.6 22.3v22.1h-32.9c-8.1 0-11.4-5.3-11.4-12.9 0-8 2-14.7 11.4-14.7zm21.2 9.5h-21.3v8.6h21.3z" fill="#fff"/><path d="m610 268.9h-21.3v32.9h-11.4v-44.4h32.7c13.3 0 11.6 12.9 11.6 22.3v22.1h-11.6z" fill="#fff"/><path d="m644.6 290.3h11.6v11.5h-11.6z" fill="#838e98"/></svg>